<svg width="1920" height="620" viewBox="0 0 1920 620" fill="none" xmlns="http://www.w3.org/2000/svg">
<ellipse cx="2765" cy="1416" rx="2765" ry="1416" transform="matrix(-1 -4.48022e-08 -1.70589e-07 1 3727 30)" fill="url(#paint0_linear_18_432)"/>
<ellipse opacity="0.5" cx="2765" cy="1416" rx="2765" ry="1416" transform="matrix(-1 -4.48022e-08 -1.70589e-07 1 3727 30)" fill="url(#paint1_linear_18_432)"/>
<ellipse opacity="0.5" cx="2765" cy="1416" rx="2765" ry="1416" transform="matrix(-1 -4.48022e-08 -1.70589e-07 1 3727 30)" fill="url(#paint2_linear_18_432)"/>
<ellipse opacity="0.5" cx="2765" cy="1416" rx="2765" ry="1416" transform="matrix(-1 -4.48022e-08 -1.70589e-07 1 3727 30)" fill="url(#paint3_linear_18_432)"/>
<g style="mix-blend-mode:screen" opacity="0.5" filter="url(#filter0_f_18_432)">
<path d="M962 32.4999C198.779 32.4999 -492.065 190.931 -992.011 446.962C-1492.09 703.06 -1800.5 1056.41 -1800.5 1446C-1800.5 1835.59 -1492.09 2188.94 -992.011 2445.04C-492.065 2701.07 198.778 2859.5 962 2859.5C1725.22 2859.5 2416.06 2701.07 2916.01 2445.04C3416.09 2188.94 3724.5 1835.59 3724.5 1446C3724.5 1056.41 3416.09 703.06 2916.01 446.962C2416.06 190.932 1725.22 32.4999 962 32.4999Z" stroke="url(#paint4_linear_18_432)" stroke-width="5"/>
</g>
<g style="mix-blend-mode:screen" opacity="0.5" filter="url(#filter1_f_18_432)">
<path d="M962 31.4999C198.654 31.4999 -492.352 189.956 -992.466 446.072C-1492.66 702.229 -1801.5 1055.84 -1801.5 1446C-1801.5 1836.16 -1492.66 2189.77 -992.466 2445.93C-492.352 2702.04 198.654 2860.5 962 2860.5C1725.35 2860.5 2416.35 2702.05 2916.47 2445.93C3416.66 2189.77 3725.5 1836.16 3725.5 1446C3725.5 1055.84 3416.66 702.23 2916.47 446.072C2416.35 189.956 1725.35 31.4999 962 31.4999Z" stroke="url(#paint5_linear_18_432)" stroke-width="3"/>
</g>
<defs>
<filter id="filter0_f_18_432" x="-1833" y="0" width="5590" height="2892" filterUnits="userSpaceOnUse" color-interpolation-filters="sRGB">
<feFlood flood-opacity="0" result="BackgroundImageFix"/>
<feBlend mode="normal" in="SourceGraphic" in2="BackgroundImageFix" result="shape"/>
<feGaussianBlur stdDeviation="15" result="effect1_foregroundBlur_18_432"/>
</filter>
<filter id="filter1_f_18_432" x="-1804" y="29" width="5532" height="2834" filterUnits="userSpaceOnUse" color-interpolation-filters="sRGB">
<feFlood flood-opacity="0" result="BackgroundImageFix"/>
<feBlend mode="normal" in="SourceGraphic" in2="BackgroundImageFix" result="shape"/>
<feGaussianBlur stdDeviation="0.5" result="effect1_foregroundBlur_18_432"/>
</filter>
<linearGradient id="paint0_linear_18_432" x1="2765" y1="0" x2="2765" y2="558" gradientUnits="userSpaceOnUse">
<stop stop-color="#120814"/>
<stop offset="1"/>
</linearGradient>
<linearGradient id="paint1_linear_18_432" x1="2765" y1="-63.9996" x2="2765" y2="364.5" gradientUnits="userSpaceOnUse">
<stop stop-color="#ED6AFF"/>
<stop offset="1" stop-color="#1F0C21" stop-opacity="0"/>
</linearGradient>
<linearGradient id="paint2_linear_18_432" x1="2765" y1="-63.9996" x2="2765" y2="153.5" gradientUnits="userSpaceOnUse">
<stop stop-color="#ED6AFF"/>
<stop offset="1" stop-color="#261128" stop-opacity="0"/>
</linearGradient>
<linearGradient id="paint3_linear_18_432" x1="2765" y1="-79.9996" x2="2765" y2="88.5004" gradientUnits="userSpaceOnUse">
<stop stop-color="#ED6AFF"/>
<stop offset="0.341346" stop-color="#0A040B" stop-opacity="0"/>
</linearGradient>
<linearGradient id="paint4_linear_18_432" x1="1178.59" y1="30.0002" x2="1178.59" y2="289" gradientUnits="userSpaceOnUse">
<stop stop-color="#ED6AFF"/>
<stop offset="1" stop-color="#220E25" stop-opacity="0.2"/>
</linearGradient>
<linearGradient id="paint5_linear_18_432" x1="1178.59" y1="30.0002" x2="1178.59" y2="289" gradientUnits="userSpaceOnUse">
<stop stop-color="#F8C8FF"/>
<stop offset="1" stop-color="#321736"/>
</linearGradient>
</defs>
</svg>
