<svg width="1138" height="1106" viewBox="0 0 1138 1106" fill="none" xmlns="http://www.w3.org/2000/svg">
<mask id="path-1-inside-1_16_196" fill="white">
<path d="M450.812 -81.4932C455.3 -86.0281 462.57 -86.1827 467.261 -81.8496C471.516 -77.9203 472.308 -71.5067 469.14 -66.6611C429.003 -5.37609 181.49 376.965 133.152 560.742C56.8091 851.031 223.444 1017.4 552.613 1007.01C742.656 1001.01 877.526 931.45 877.106 794.84C876.765 684.602 808.748 602.723 799.288 586.26C798.247 584.458 796.275 583.402 794.178 583.542C783.305 584.256 748.123 587.098 713.951 595.438C697.331 599.508 680.509 605.316 666.39 610.783C646.135 618.642 623.318 608.888 614.853 588.899L499.507 316.721C498.342 313.987 499.569 310.834 502.256 309.592L525.338 298.953V298.984C528.134 297.695 531.442 298.953 532.669 301.764L648.435 566.737C649.755 569.766 653.452 570.961 656.294 569.237C670.429 560.664 711.668 538.3 766.063 532.01C833.802 524.182 897.905 537.694 897.905 537.694C897.96 537.595 932.135 474.89 985.339 439.042C1025.93 411.708 1075.8 387.914 1091.27 380.754C1093.96 379.511 1095.16 376.374 1094.02 373.656L984.453 111.805C983.226 108.885 984.702 105.562 987.685 104.506L1013.05 95.5596C1015.78 94.5967 1018.8 95.9169 1019.93 98.5879L1134.79 368.531C1143.35 388.628 1134.2 411.941 1114.2 420.7C1101.66 426.198 1086.7 433.497 1070.57 442.878C1034.24 464.015 1010.21 487.575 1002.42 495.714C1000.79 497.422 1000.44 499.985 1001.55 502.082C1014.99 527.165 1095.79 687.18 1072.62 865.956C1056.2 992.642 945.761 1281.32 325.4 1163.2C144.802 1128.82 -30.6096 934.277 4.52539 668.62C33.3541 450.643 150.346 294.837 215.397 200.486C309.774 63.6589 420.367 -50.8196 450.812 -81.4932ZM638.182 218.891C691.428 211.001 738.88 218.393 750.142 220.412C751.71 220.692 753.015 221.748 753.637 223.224L868.749 500.73C870.162 504.147 867.243 507.766 863.593 507.099C846.911 504.086 807.131 499.022 756.309 506.896C704.041 515.004 674.917 530.628 664.37 537.337C661.916 538.89 658.669 537.88 657.551 535.193L539.301 250.201C538.307 247.809 539.44 245.06 541.848 244.097C553.668 239.298 588.959 226.19 638.182 218.891ZM938.863 77.9639C941.209 77.0941 943.803 78.2122 944.781 80.5107L1064.51 362.211C1065.59 364.758 1064.23 367.678 1061.57 368.501C1050.53 371.902 1022.01 382.464 983.489 409.813C944.238 437.692 913.405 477.745 902.004 493.618C899.891 496.569 895.371 496.072 893.942 492.733L776.111 216.143L776.127 216.127C775.521 214.683 775.661 213.052 776.531 211.747C783.677 200.953 817.863 151.13 858.745 123.252C903.572 92.6562 929.373 81.4895 938.863 77.9639Z"/>
</mask>
<path d="M450.812 -81.4932C455.3 -86.0281 462.57 -86.1827 467.261 -81.8496C471.516 -77.9203 472.308 -71.5067 469.14 -66.6611C429.003 -5.37609 181.49 376.965 133.152 560.742C56.8091 851.031 223.444 1017.4 552.613 1007.01C742.656 1001.01 877.526 931.45 877.106 794.84C876.765 684.602 808.748 602.723 799.288 586.26C798.247 584.458 796.275 583.402 794.178 583.542C783.305 584.256 748.123 587.098 713.951 595.438C697.331 599.508 680.509 605.316 666.39 610.783C646.135 618.642 623.318 608.888 614.853 588.899L499.507 316.721C498.342 313.987 499.569 310.834 502.256 309.592L525.338 298.953V298.984C528.134 297.695 531.442 298.953 532.669 301.764L648.435 566.737C649.755 569.766 653.452 570.961 656.294 569.237C670.429 560.664 711.668 538.3 766.063 532.01C833.802 524.182 897.905 537.694 897.905 537.694C897.96 537.595 932.135 474.89 985.339 439.042C1025.93 411.708 1075.8 387.914 1091.27 380.754C1093.96 379.511 1095.16 376.374 1094.02 373.656L984.453 111.805C983.226 108.885 984.702 105.562 987.685 104.506L1013.05 95.5596C1015.78 94.5967 1018.8 95.9169 1019.93 98.5879L1134.79 368.531C1143.35 388.628 1134.2 411.941 1114.2 420.7C1101.66 426.198 1086.7 433.497 1070.57 442.878C1034.24 464.015 1010.21 487.575 1002.42 495.714C1000.79 497.422 1000.44 499.985 1001.55 502.082C1014.99 527.165 1095.79 687.18 1072.62 865.956C1056.2 992.642 945.761 1281.32 325.4 1163.2C144.802 1128.82 -30.6096 934.277 4.52539 668.62C33.3541 450.643 150.346 294.837 215.397 200.486C309.774 63.6589 420.367 -50.8196 450.812 -81.4932ZM638.182 218.891C691.428 211.001 738.88 218.393 750.142 220.412C751.71 220.692 753.015 221.748 753.637 223.224L868.749 500.73C870.162 504.147 867.243 507.766 863.593 507.099C846.911 504.086 807.131 499.022 756.309 506.896C704.041 515.004 674.917 530.628 664.37 537.337C661.916 538.89 658.669 537.88 657.551 535.193L539.301 250.201C538.307 247.809 539.44 245.06 541.848 244.097C553.668 239.298 588.959 226.19 638.182 218.891ZM938.863 77.9639C941.209 77.0941 943.803 78.2122 944.781 80.5107L1064.51 362.211C1065.59 364.758 1064.23 367.678 1061.57 368.501C1050.53 371.902 1022.01 382.464 983.489 409.813C944.238 437.692 913.405 477.745 902.004 493.618C899.891 496.569 895.371 496.072 893.942 492.733L776.111 216.143L776.127 216.127C775.521 214.683 775.661 213.052 776.531 211.747C783.677 200.953 817.863 151.13 858.745 123.252C903.572 92.6562 929.373 81.4895 938.863 77.9639Z" fill="url(#paint0_linear_16_196)" fill-opacity="0.3"/>
<path d="M450.812 -81.4932L451.521 -80.7887L451.522 -80.7897L450.812 -81.4932ZM467.261 -81.8496L466.582 -81.115L466.582 -81.1149L467.261 -81.8496ZM469.14 -66.6611L469.976 -66.1133L469.977 -66.1138L469.14 -66.6611ZM133.152 560.742L132.185 560.488L132.185 560.488L133.152 560.742ZM552.613 1007.01L552.582 1006.01L552.613 1007.01ZM877.106 794.84L878.106 794.837V794.837L877.106 794.84ZM799.288 586.26L800.155 585.762L800.154 585.76L799.288 586.26ZM794.178 583.542L794.243 584.54L794.244 584.54L794.178 583.542ZM713.951 595.438L713.714 594.467L713.713 594.467L713.951 595.438ZM666.39 610.783L666.029 609.851L666.028 609.851L666.39 610.783ZM614.853 588.899L615.773 588.509L615.773 588.509L614.853 588.899ZM499.507 316.721L500.428 316.331L500.427 316.329L499.507 316.721ZM502.256 309.592L501.837 308.684L501.836 308.684L502.256 309.592ZM525.338 298.953H526.338V297.391L524.919 298.045L525.338 298.953ZM525.338 298.984H524.338V300.547L525.757 299.893L525.338 298.984ZM532.669 301.764L531.753 302.164L531.753 302.164L532.669 301.764ZM648.435 566.737L649.351 566.338L649.351 566.337L648.435 566.737ZM656.294 569.237L656.812 570.092H656.813L656.294 569.237ZM766.063 532.01L765.949 531.016H765.949L766.063 532.01ZM897.905 537.694L897.699 538.673L898.427 538.826L898.783 538.173L897.905 537.694ZM985.339 439.042L984.78 438.213L984.78 438.213L985.339 439.042ZM1091.27 380.754L1090.85 379.846L1090.85 379.846L1091.27 380.754ZM1094.02 373.656L1094.94 373.271L1094.94 373.27L1094.02 373.656ZM984.453 111.805L985.376 111.419L985.375 111.417L984.453 111.805ZM987.685 104.506L987.352 103.563L987.351 103.563L987.685 104.506ZM1013.05 95.5596L1012.72 94.6164L1012.72 94.6165L1013.05 95.5596ZM1019.93 98.5879L1019.01 98.9787L1019.01 98.9794L1019.93 98.5879ZM1134.79 368.531L1133.87 368.923L1133.87 368.923L1134.79 368.531ZM1114.2 420.7L1113.8 419.784L1113.8 419.784L1114.2 420.7ZM1070.57 442.878L1070.06 442.013L1070.06 442.014L1070.57 442.878ZM1002.42 495.714L1001.7 495.023L1001.7 495.023L1002.42 495.714ZM1001.55 502.082L1000.67 502.553L1000.67 502.554L1001.55 502.082ZM1072.62 865.956L1071.63 865.828L1072.62 865.956ZM325.4 1163.2L325.213 1164.19L325.4 1163.2ZM4.52539 668.62L5.51676 668.751L4.52539 668.62ZM215.397 200.486L214.574 199.919L214.574 199.919L215.397 200.486ZM638.182 218.891L638.035 217.901H638.035L638.182 218.891ZM750.142 220.412L749.965 221.396L749.966 221.397L750.142 220.412ZM753.637 223.224L754.56 222.84L754.558 222.836L753.637 223.224ZM868.749 500.73L869.673 500.348L869.673 500.347L868.749 500.73ZM863.593 507.099L863.773 506.115L863.771 506.115L863.593 507.099ZM756.309 506.896L756.156 505.908L756.155 505.908L756.309 506.896ZM664.37 537.337L664.905 538.182L664.907 538.181L664.37 537.337ZM657.551 535.193L656.627 535.577L656.628 535.578L657.551 535.193ZM539.301 250.201L540.224 249.818L540.224 249.817L539.301 250.201ZM541.848 244.097L542.219 245.025L542.224 245.023L541.848 244.097ZM938.863 77.9639L938.516 77.0263L938.515 77.0265L938.863 77.9639ZM944.781 80.5107L945.702 80.1196L945.701 80.119L944.781 80.5107ZM1064.51 362.211L1063.59 362.602L1063.59 362.604L1064.51 362.211ZM1061.57 368.501L1061.87 369.457L1061.87 369.456L1061.57 368.501ZM983.489 409.813L982.91 408.998L982.91 408.998L983.489 409.813ZM902.004 493.618L901.192 493.035L901.191 493.036L902.004 493.618ZM893.942 492.733L893.022 493.125L893.023 493.127L893.942 492.733ZM776.111 216.143L775.404 215.435L774.927 215.913L775.191 216.535L776.111 216.143ZM776.127 216.127L776.834 216.834L777.309 216.359L777.049 215.74L776.127 216.127ZM776.531 211.747L777.363 212.302L777.365 212.299L776.531 211.747ZM858.745 123.252L859.309 124.078L859.309 124.078L858.745 123.252ZM450.812 -81.4932L451.522 -80.7897C455.631 -84.9405 462.286 -85.0835 466.582 -81.115L467.261 -81.8496L467.939 -82.5842C462.854 -87.2819 454.97 -87.1156 450.101 -82.1967L450.812 -81.4932ZM467.261 -81.8496L466.582 -81.1149C470.479 -77.5169 471.204 -71.6453 468.303 -67.2084L469.14 -66.6611L469.977 -66.1138C473.412 -71.368 472.554 -78.3236 467.939 -82.5843L467.261 -81.8496ZM469.14 -66.6611L468.303 -67.209C448.23 -36.5597 376.307 74.3643 303.356 200.605C230.427 326.808 156.394 468.449 132.185 560.488L133.152 560.742L134.119 560.997C158.249 469.257 232.141 327.84 305.087 201.606C378.011 75.4113 449.912 -35.4775 469.976 -66.1133L469.14 -66.6611ZM133.152 560.742L132.185 560.488C93.9569 705.848 116.515 820.412 190.093 897.321C263.633 974.19 387.92 1013.21 552.645 1008.01L552.613 1007.01L552.582 1006.01C388.137 1011.2 264.523 972.227 191.538 895.938C118.592 819.689 96.0045 705.925 134.119 560.997L133.152 560.742ZM552.613 1007.01L552.645 1008.01C647.758 1005.01 729.18 986.099 786.806 950.757C844.479 915.386 878.317 863.54 878.106 794.837L877.106 794.84L876.106 794.843C876.315 862.75 842.928 913.991 785.76 949.052C728.545 984.142 647.511 1003.01 552.582 1006.01L552.613 1007.01ZM877.106 794.84L878.106 794.837C877.764 684.254 809.51 602.042 800.155 585.762L799.288 586.26L798.421 586.758C807.986 603.404 875.766 684.95 876.106 794.843L877.106 794.84ZM799.288 586.26L800.154 585.76C798.922 583.627 796.587 582.379 794.111 582.544L794.178 583.542L794.244 584.54C795.962 584.425 797.573 585.289 798.422 586.76L799.288 586.26ZM794.178 583.542L794.112 582.544C783.22 583.26 747.971 586.106 713.714 594.467L713.951 595.438L714.188 596.41C748.276 588.091 783.389 585.253 794.243 584.54L794.178 583.542ZM713.951 595.438L713.713 594.467C697.037 598.55 680.171 604.375 666.029 609.851L666.39 610.783L666.751 611.716C680.847 606.258 697.626 600.465 714.189 596.41L713.951 595.438ZM666.39 610.783L666.028 609.851C646.281 617.512 624.03 608.004 615.773 588.509L614.853 588.899L613.932 589.289C622.606 609.771 645.989 619.771 666.751 611.716L666.39 610.783ZM614.853 588.899L615.773 588.509L500.428 316.331L499.507 316.721L498.586 317.111L613.932 589.29L614.853 588.899ZM499.507 316.721L500.427 316.329C499.475 314.095 500.476 311.516 502.676 310.499L502.256 309.592L501.836 308.684C498.661 310.152 497.209 313.879 498.587 317.113L499.507 316.721ZM502.256 309.592L502.674 310.5L525.756 299.861L525.338 298.953L524.919 298.045L501.837 308.684L502.256 309.592ZM525.338 298.953H524.338V298.984H525.338H526.338V298.953H525.338ZM525.338 298.984L525.757 299.893C528.045 298.837 530.75 299.868 531.753 302.164L532.669 301.764L533.585 301.364C532.133 298.038 528.222 296.554 524.919 298.076L525.338 298.984ZM532.669 301.764L531.753 302.164L647.518 567.138L648.435 566.737L649.351 566.337L533.585 301.363L532.669 301.764ZM648.435 566.737L647.518 567.137C649.078 570.716 653.449 572.133 656.812 570.092L656.294 569.237L655.775 568.382C653.455 569.79 650.432 568.815 649.351 566.338L648.435 566.737ZM656.294 569.237L656.813 570.092C670.883 561.558 711.982 539.27 766.178 533.003L766.063 532.01L765.949 531.016C711.355 537.329 669.975 559.77 655.775 568.382L656.294 569.237ZM766.063 532.01L766.178 533.003C799.953 529.1 832.838 530.517 857.289 532.912C869.511 534.109 879.62 535.551 886.671 536.693C890.196 537.263 892.956 537.759 894.834 538.112C895.773 538.288 896.491 538.429 896.973 538.525C897.214 538.573 897.397 538.61 897.518 538.635C897.579 538.648 897.625 538.657 897.655 538.664C897.67 538.667 897.681 538.669 897.689 538.671C897.692 538.671 897.695 538.672 897.697 538.672C897.698 538.673 897.698 538.673 897.699 538.673C897.699 538.673 897.699 538.673 897.905 537.694C898.112 536.716 898.111 536.716 898.11 536.716C898.11 536.716 898.109 536.715 898.108 536.715C898.106 536.715 898.103 536.714 898.099 536.713C898.09 536.711 898.078 536.709 898.062 536.706C898.03 536.699 897.983 536.689 897.92 536.676C897.795 536.651 897.609 536.613 897.365 536.564C896.875 536.466 896.15 536.324 895.203 536.146C893.31 535.791 890.533 535.292 886.99 534.718C879.905 533.571 869.754 532.124 857.484 530.921C832.948 528.518 799.912 527.092 765.949 531.016L766.063 532.01ZM897.905 537.694L898.783 538.173C898.833 538.081 932.912 475.572 985.898 439.871L985.339 439.042L984.78 438.213C931.358 474.208 897.086 537.108 897.027 537.216L897.905 537.694ZM985.339 439.042L985.897 439.871C1026.41 412.584 1076.23 388.818 1091.69 381.661L1091.27 380.754L1090.85 379.846C1075.37 387.01 1025.44 410.831 984.78 438.213L985.339 439.042ZM1091.27 380.754L1091.69 381.662C1094.87 380.191 1096.28 376.48 1094.94 373.271L1094.02 373.656L1093.1 374.041C1094.03 376.269 1093.05 378.832 1090.85 379.846L1091.27 380.754ZM1094.02 373.656L1094.94 373.27L985.376 111.419L984.453 111.805L983.531 112.191L1093.1 374.042L1094.02 373.656ZM984.453 111.805L985.375 111.417C984.372 109.029 985.577 106.313 988.018 105.449L987.685 104.506L987.351 103.563C983.828 104.811 982.081 108.741 983.531 112.192L984.453 111.805ZM987.685 104.506L988.017 105.449L1013.38 96.5026L1013.05 95.5596L1012.72 94.6165L987.352 103.563L987.685 104.506ZM1013.05 95.5596L1013.38 96.5028C1015.62 95.7146 1018.08 96.7957 1019.01 98.9787L1019.93 98.5879L1020.85 98.1971C1019.51 95.0381 1015.95 93.4789 1012.72 94.6164L1013.05 95.5596ZM1019.93 98.5879L1019.01 98.9794L1133.87 368.923L1134.79 368.531L1135.71 368.14L1020.85 98.1964L1019.93 98.5879ZM1134.79 368.531L1133.87 368.923C1142.22 388.52 1133.3 411.246 1113.8 419.784L1114.2 420.7L1114.6 421.616C1135.11 412.635 1144.49 388.737 1135.71 368.139L1134.79 368.531ZM1114.2 420.7L1113.8 419.784C1101.23 425.295 1086.24 432.611 1070.06 442.013L1070.57 442.878L1071.07 443.742C1087.17 434.383 1102.09 427.101 1114.6 421.616L1114.2 420.7ZM1070.57 442.878L1070.06 442.014C1033.63 463.213 1009.52 486.843 1001.7 495.023L1002.42 495.714L1003.15 496.405C1010.89 488.308 1034.85 464.817 1071.07 443.742L1070.57 442.878ZM1002.42 495.714L1001.7 495.023C999.773 497.043 999.35 500.074 1000.67 502.553L1001.55 502.082L1002.44 501.611C1001.52 499.896 1001.81 497.801 1003.15 496.404L1002.42 495.714ZM1001.55 502.082L1000.67 502.554C1014.09 527.596 1094.76 687.376 1071.63 865.828L1072.62 865.956L1073.61 866.085C1096.83 686.984 1015.89 526.733 1002.44 501.61L1001.55 502.082ZM1072.62 865.956L1071.63 865.828C1063.44 928.999 1031.82 1032.53 924.923 1105.55C818.021 1178.59 635.63 1221.25 325.587 1162.22L325.4 1163.2L325.213 1164.19C635.532 1223.27 818.54 1180.65 926.051 1107.2C1033.57 1033.75 1065.38 929.599 1073.61 866.085L1072.62 865.956ZM325.4 1163.2L325.587 1162.22C145.512 1127.93 -29.5491 933.885 5.51676 668.751L4.52539 668.62L3.53402 668.489C-31.6702 934.669 144.091 1129.7 325.213 1164.19L325.4 1163.2ZM4.52539 668.62L5.51676 668.751C34.3089 451.051 151.147 295.437 216.221 201.054L215.397 200.486L214.574 199.919C149.546 294.237 32.3993 450.236 3.53402 668.489L4.52539 668.62ZM215.397 200.486L216.221 201.054C310.547 64.299 421.092 -50.1304 451.521 -80.7887L450.812 -81.4932L450.102 -82.1976C419.643 -51.5088 309.001 63.0187 214.574 199.919L215.397 200.486ZM638.182 218.891L638.328 219.88C691.419 212.013 738.75 219.386 749.965 221.396L750.142 220.412L750.318 219.428C739.011 217.401 691.436 209.989 638.035 217.901L638.182 218.891ZM750.142 220.412L749.966 221.397C751.195 221.616 752.223 222.443 752.715 223.612L753.637 223.224L754.558 222.836C753.808 221.053 752.226 219.768 750.317 219.428L750.142 220.412ZM753.637 223.224L752.713 223.607L867.825 501.114L868.749 500.73L869.673 500.347L754.56 222.84L753.637 223.224ZM868.749 500.73L867.825 501.113C868.935 503.797 866.644 506.64 863.773 506.115L863.593 507.099L863.413 508.082C867.841 508.892 871.39 504.497 869.673 500.348L868.749 500.73ZM863.593 507.099L863.771 506.115C847.012 503.088 807.117 498.013 756.156 505.908L756.309 506.896L756.462 507.885C807.146 500.032 846.809 505.083 863.415 508.083L863.593 507.099ZM756.309 506.896L756.155 505.908C703.747 514.037 674.493 529.712 663.833 536.493L664.37 537.337L664.907 538.181C675.341 531.543 704.335 515.97 756.462 507.885L756.309 506.896ZM664.37 537.337L663.835 536.492C661.901 537.716 659.352 536.919 658.474 534.809L657.551 535.193L656.628 535.578C657.986 538.841 661.931 540.064 664.905 538.182L664.37 537.337ZM657.551 535.193L658.474 534.81L540.224 249.818L539.301 250.201L538.377 250.584L656.627 535.577L657.551 535.193ZM539.301 250.201L540.224 249.817C539.441 247.933 540.337 245.778 542.219 245.025L541.848 244.097L541.476 243.168C538.544 244.341 537.172 247.686 538.377 250.585L539.301 250.201ZM541.848 244.097L542.224 245.023C553.993 240.245 589.205 227.165 638.328 219.88L638.182 218.891L638.035 217.901C588.712 225.216 553.343 238.35 541.471 243.17L541.848 244.097ZM938.863 77.9639L939.211 78.9015C941.056 78.2173 943.092 79.0951 943.861 80.9025L944.781 80.5107L945.701 80.119C944.514 77.3292 941.362 75.9709 938.516 77.0263L938.863 77.9639ZM944.781 80.5107L943.861 80.9019L1063.59 362.602L1064.51 362.211L1065.43 361.82L945.702 80.1196L944.781 80.5107ZM1064.51 362.211L1063.59 362.604C1064.44 364.599 1063.37 366.896 1061.28 367.546L1061.57 368.501L1061.87 369.456C1065.08 368.459 1066.75 364.917 1065.43 361.818L1064.51 362.211ZM1061.57 368.501L1061.28 367.545C1050.14 370.976 1021.52 381.583 982.91 408.998L983.489 409.813L984.068 410.629C1022.5 383.345 1050.92 372.829 1061.87 369.457L1061.57 368.501ZM983.489 409.813L982.91 408.998C943.521 436.974 912.61 477.138 901.192 493.035L902.004 493.618L902.816 494.202C914.2 478.353 944.955 438.409 984.068 410.629L983.489 409.813ZM902.004 493.618L901.191 493.036C899.533 495.351 895.985 494.965 894.862 492.34L893.942 492.733L893.023 493.127C894.758 497.18 900.249 497.787 902.817 494.2L902.004 493.618ZM893.942 492.733L894.862 492.341L777.031 215.751L776.111 216.143L775.191 216.535L893.022 493.125L893.942 492.733ZM776.111 216.143L776.818 216.85L776.834 216.834L776.127 216.127L775.42 215.42L775.404 215.435L776.111 216.143ZM776.127 216.127L777.049 215.74C776.57 214.598 776.684 213.321 777.363 212.302L776.531 211.747L775.699 211.192C774.639 212.782 774.472 214.767 775.205 216.514L776.127 216.127ZM776.531 211.747L777.365 212.299C784.51 201.505 818.605 151.835 859.309 124.078L858.745 123.252L858.182 122.426C817.122 150.425 782.843 200.4 775.697 211.195L776.531 211.747ZM858.745 123.252L859.309 124.078C904.083 93.518 929.812 82.3931 939.211 78.9013L938.863 77.9639L938.515 77.0265C928.934 80.5858 903.061 91.7943 858.181 122.426L858.745 123.252Z" fill="white" fill-opacity="0.35" mask="url(#path-1-inside-1_16_196)"/>
<defs>
<linearGradient id="paint0_linear_16_196" x1="569.001" y1="133" x2="569.001" y2="1021.5" gradientUnits="userSpaceOnUse">
<stop stop-color="#ED6AFF"/>
<stop offset="1" stop-color="#C8A6FF"/>
</linearGradient>
</defs>
</svg>
