<svg xmlns="http://www.w3.org/2000/svg" width="111" height="112" viewBox="0 0 111 112" fill="none">
  <g clip-path="url(#clip0_53_1113)">
    <path d="M55.5986 10.8775C70.3026 10.8775 72.0439 10.942 77.8266 11.1999C83.2009 11.4364 86.103 12.3393 88.0378 13.0917C90.5959 14.0805 92.4447 15.2844 94.3579 17.1976C96.2926 19.1324 97.475 20.9596 98.4639 23.5178C99.2163 25.4525 100.119 28.3761 100.356 33.7289C100.614 39.5331 100.678 41.2744 100.678 55.957C100.678 70.661 100.614 72.4023 100.356 78.185C100.119 83.5593 99.2163 86.4614 98.4639 88.3961C97.475 90.9543 96.2712 92.803 94.3579 94.7163C92.4232 96.651 90.5959 97.8334 88.0378 98.8222C86.103 99.5746 83.1794 100.478 77.8266 100.714C72.0224 100.972 70.2811 101.036 55.5986 101.036C40.8945 101.036 39.1533 100.972 33.3705 100.714C27.9963 100.478 25.0941 99.5746 23.1594 98.8222C20.6012 97.8334 18.7525 96.6295 16.8392 94.7163C14.9045 92.7815 13.7222 90.9543 12.7333 88.3961C11.9809 86.4614 11.078 83.5378 10.8415 78.185C10.5836 72.3808 10.5191 70.6395 10.5191 55.957C10.5191 41.2529 10.5836 39.5116 10.8415 33.7289C11.078 28.3546 11.9809 25.4525 12.7333 23.5178C13.7222 20.9596 14.926 19.1109 16.8392 17.1976C18.774 15.2629 20.6012 14.0805 23.1594 13.0917C25.0941 12.3393 28.0178 11.4364 33.3705 11.1999C39.1533 10.942 40.8945 10.8775 55.5986 10.8775ZM55.5986 0.967285C40.6581 0.967285 38.7878 1.03178 32.9191 1.28974C27.0719 1.54771 23.0519 2.49358 19.5694 3.8479C15.9364 5.26671 12.8623 7.13696 9.80969 10.2111C6.7356 13.2636 4.86534 16.3377 3.44653 19.9493C2.09221 23.4533 1.14634 27.4517 0.888375 33.299C0.630409 39.1892 0.565918 41.0594 0.565918 55.9999C0.565918 70.9404 0.630409 72.8107 0.888375 78.6794C1.14634 84.5266 2.09221 88.5466 3.44653 92.0291C4.86534 95.6622 6.7356 98.7362 9.80969 101.789C12.8623 104.841 15.9364 106.733 19.5479 108.13C23.0519 109.485 27.0504 110.431 32.8976 110.689C38.7663 110.947 40.6366 111.011 55.5771 111.011C70.5176 111.011 72.3878 110.947 78.2566 110.689C84.1038 110.431 88.1237 109.485 91.6063 108.13C95.2178 106.733 98.2919 104.841 101.344 101.789C104.397 98.7362 106.289 95.6622 107.686 92.0506C109.04 88.5466 109.986 84.5481 110.244 78.7009C110.502 72.8322 110.567 70.962 110.567 56.0214C110.567 41.0809 110.502 39.2107 110.244 33.342C109.986 27.4947 109.04 23.4748 107.686 19.9922C106.332 16.3377 104.462 13.2636 101.387 10.2111C98.3349 7.15846 95.2608 5.26671 91.6493 3.8694C88.1452 2.51508 84.1468 1.5692 78.2996 1.31124C72.4093 1.03178 70.5391 0.967285 55.5986 0.967285Z" fill="url(#paint0_linear_53_1113)"/>
    <path d="M55.5986 27.7312C39.9916 27.7312 27.3298 40.393 27.3298 55.9999C27.3298 71.6068 39.9916 84.2687 55.5986 84.2687C71.2055 84.2687 83.8673 71.6068 83.8673 55.9999C83.8673 40.393 71.2055 27.7312 55.5986 27.7312ZM55.5986 74.337C45.4734 74.337 37.2615 66.1251 37.2615 55.9999C37.2615 45.8748 45.4734 37.6629 55.5986 37.6629C65.7237 37.6629 73.9356 45.8748 73.9356 55.9999C73.9356 66.1251 65.7237 74.337 55.5986 74.337Z" fill="url(#paint1_linear_53_1113)"/>
    <path d="M91.5847 26.6138C91.5847 30.2683 88.6181 33.2134 84.9851 33.2134C81.3306 33.2134 78.3855 30.2468 78.3855 26.6138C78.3855 22.9593 81.3521 20.0142 84.9851 20.0142C88.6181 20.0142 91.5847 22.9808 91.5847 26.6138Z" fill="url(#paint2_linear_53_1113)"/>
  </g>
  <defs>
    <linearGradient id="paint0_linear_53_1113" x1="25.4791" y1="-24.5572" x2="99.9259" y2="-15.2218" gradientUnits="userSpaceOnUse">
      <stop stop-color="#EC75FF"/>
      <stop offset="1" stop-color="#C8A6FF"/>
    </linearGradient>
    <linearGradient id="paint1_linear_53_1113" x1="40.1345" y1="14.6174" x2="78.3977" y2="19.4174" gradientUnits="userSpaceOnUse">
      <stop stop-color="#EC75FF"/>
      <stop offset="1" stop-color="#C8A6FF"/>
    </linearGradient>
    <linearGradient id="paint2_linear_53_1113" x1="81.3749" y1="16.9526" x2="90.3078" y2="18.0732" gradientUnits="userSpaceOnUse">
      <stop stop-color="#EC75FF"/>
      <stop offset="1" stop-color="#C8A6FF"/>
    </linearGradient>
    <clipPath id="clip0_53_1113">
      <rect width="110.065" height="110.065" fill="white" transform="translate(0.565918 0.967285)"/>
    </clipPath>
  </defs>
</svg>