<svg xmlns="http://www.w3.org/2000/svg" width="98" height="110" viewBox="0 0 98 110" fill="none">
  <path d="M45.2782 33.0994L43.3108 34.0165C43.0818 34.1236 42.9772 34.3954 43.0765 34.631L52.9082 58.0948C53.6298 59.8179 55.5747 60.6587 57.3012 59.9813C58.5046 59.51 59.9385 59.0092 61.3551 58.6585C64.2679 57.9395 67.2666 57.6945 68.1934 57.6329C68.3722 57.6208 68.5403 57.7119 68.629 57.8672C69.4353 59.2864 75.2329 66.3449 75.2621 75.8483C75.2978 87.625 63.8018 93.6218 47.6031 94.1386C19.5456 95.0343 5.34213 80.6923 11.8494 55.6674C15.9696 39.8245 37.067 6.86414 40.4881 1.58095C40.7582 1.16322 40.6907 0.610264 40.3279 0.271529C39.9281 -0.102017 39.3085 -0.0886284 38.9258 0.302323C36.3309 2.9466 26.9042 12.8154 18.8598 24.6109C13.3151 32.7446 3.34294 46.1761 0.885665 64.9672C-2.10914 87.8687 12.8424 104.639 28.2361 107.604C81.114 117.786 90.5274 92.9002 91.9268 81.979C93.9022 66.5672 87.0149 52.7728 85.8697 50.6105C85.7744 50.4297 85.8048 50.2088 85.9438 50.0616C86.6071 49.36 88.6553 47.3289 91.7521 45.5067C93.1277 44.698 94.4026 44.0688 95.4711 43.5948C97.1763 42.8397 97.9562 40.83 97.2267 39.0975L87.4359 15.8266C87.3393 15.5963 87.0824 15.4825 86.8494 15.5655L84.6874 16.3367C84.4332 16.4277 84.3074 16.7142 84.412 16.9659L93.7513 39.5393C93.8479 39.7737 93.746 40.0441 93.5169 40.1512C92.1982 40.7684 87.947 42.8196 84.4875 45.176C79.9489 48.2688 77.0349 53.6805 77.0349 53.6805C77.0349 53.6805 71.5709 52.5157 65.797 53.1905C61.1605 53.7327 57.6454 55.6607 56.4406 56.3998C56.1983 56.5484 55.8832 56.4453 55.7707 56.1842L45.9031 33.3417C45.7985 33.0994 45.5165 32.9909 45.2782 33.102V33.0994Z" fill="url(#paint0_linear_54_1178)"/>
  <path d="M46.4684 28.8966C46.3837 28.6904 46.4803 28.4535 46.6856 28.3704C47.6931 27.9567 50.7011 26.8267 54.8968 26.1975C59.4354 25.5173 63.4801 26.1546 64.4399 26.3287C64.5737 26.3528 64.6849 26.4438 64.7378 26.571L74.5498 50.494C74.6702 50.7886 74.4213 51.1005 74.1102 51.0429C72.6883 50.7832 69.2976 50.3467 64.9656 51.0255C60.5104 51.7244 58.028 53.0713 57.129 53.6497C56.9198 53.7836 56.6431 53.6966 56.5478 53.465L46.4684 28.8966Z" fill="url(#paint1_linear_54_1178)"/>
  <path d="M66.6548 25.9592C66.6032 25.8347 66.6151 25.6941 66.6893 25.5816C67.2983 24.6511 70.2123 20.356 73.697 17.9527C77.518 15.3152 79.7171 14.3525 80.526 14.0486C80.726 13.9736 80.9471 14.07 81.0305 14.2682L91.2356 38.5527C91.3283 38.7722 91.2118 39.0239 90.9854 39.0949C90.044 39.3881 87.6132 40.2985 84.3298 42.6563C80.9841 45.0596 78.3561 48.5125 77.3843 49.8809C77.2042 50.1353 76.8189 50.0924 76.6971 49.8046L66.6535 25.9605L66.6548 25.9592Z" fill="url(#paint2_linear_54_1178)"/>
  <defs>
    <linearGradient id="paint0_linear_54_1178" x1="49" y1="0" x2="49" y2="110" gradientUnits="userSpaceOnUse">
      <stop offset="0.649038" stop-color="#EC75FF"/>
      <stop offset="1" stop-color="#C8A6FF"/>
    </linearGradient>
    <linearGradient id="paint1_linear_54_1178" x1="60.5092" y1="25.8905" x2="60.5092" y2="53.7129" gradientUnits="userSpaceOnUse">
      <stop offset="0.649038" stop-color="#EC75FF"/>
      <stop offset="1" stop-color="#C8A6FF"/>
    </linearGradient>
    <linearGradient id="paint2_linear_54_1178" x1="78.9454" y1="14.0232" x2="78.9454" y2="50.0485" gradientUnits="userSpaceOnUse">
      <stop offset="0.649038" stop-color="#EC75FF"/>
      <stop offset="1" stop-color="#C8A6FF"/>
    </linearGradient>
  </defs>
</svg>