<svg xmlns="http://www.w3.org/2000/svg" width="111" height="112" viewBox="0 0 111 112" fill="none">
  <path d="M78.8381 40.6983C85.916 45.7759 94.5867 48.7634 103.952 48.7634V30.6785C102.179 30.6788 100.411 30.4934 98.6775 30.1247V44.3601C89.3135 44.3601 80.6438 41.3726 73.5641 36.2954V73.2016C73.5641 91.6639 58.6506 106.629 40.255 106.629C33.3912 106.629 27.0115 104.547 21.7119 100.976C27.7605 107.182 36.1958 111.032 45.5279 111.032C63.9246 111.032 78.8388 96.0668 78.8388 77.6037V40.6983H78.8381ZM85.3441 22.4528C81.7269 18.487 79.352 13.3618 78.8381 7.69574V5.36963H73.8402C75.0982 12.5712 79.3892 18.7238 85.3441 22.4528ZM33.3471 86.8081C31.3262 84.1488 30.2341 80.8957 30.2389 77.5508C30.2389 69.1069 37.0603 62.2604 45.4759 62.2604C47.0443 62.26 48.6033 62.501 50.098 62.9769V44.4878C48.3513 44.2476 46.5884 44.1456 44.8262 44.183V58.574C43.3305 58.0981 41.7707 57.8563 40.2019 57.8578C31.7863 57.8578 24.9653 64.7036 24.9653 73.1487C24.9653 79.12 28.3749 84.2897 33.3471 86.8081Z" fill="#ED6AFF"/>
  <path d="M73.5641 36.295C80.6439 41.3722 89.3135 44.3598 98.6776 44.3598V30.1243C93.4506 29.007 88.8233 26.2657 85.3442 22.4528C79.3889 18.7234 75.0983 12.5708 73.8403 5.36963H60.7123V77.603C60.6826 86.0239 53.8729 92.8424 45.4753 92.8424C40.5267 92.8424 36.1304 90.4751 33.3461 86.8081C28.3742 84.2897 24.9647 79.1196 24.9647 73.1491C24.9647 64.7047 31.7856 57.8582 40.2013 57.8582C41.8137 57.8582 43.3678 58.1102 44.8256 58.5744V44.1833C26.7531 44.5581 12.2185 59.3775 12.2185 77.6033C12.2185 86.7015 15.838 94.9494 21.7124 100.976C27.012 104.547 33.3916 106.63 40.2555 106.63C58.6514 106.63 73.5645 91.6635 73.5645 73.2016V36.295H73.5641Z" fill="black"/>
  <path d="M98.6778 30.1245V26.2754C93.9644 26.2825 89.3434 24.9578 85.3444 22.4526C88.8845 26.3422 93.546 29.0242 98.6778 30.1245ZM73.8405 5.36982C73.7205 4.68158 73.6283 3.98881 73.5643 3.2934V0.967285H55.4381V73.2014C55.4091 81.6212 48.5998 88.4397 40.2015 88.4397C37.7358 88.4397 35.4079 87.8523 33.3463 86.8086C36.1306 90.4753 40.5269 92.8422 45.4755 92.8422C53.8723 92.8422 60.6831 86.0245 60.7125 77.6035V5.36982H73.8405ZM44.8265 44.1835V40.0858C43.3119 39.8781 41.7849 39.7738 40.256 39.7746C21.8585 39.7742 6.94507 54.7406 6.94507 73.2014C6.94507 84.7753 12.8063 94.9753 21.7129 100.975C15.8385 94.9493 12.2191 86.701 12.2191 77.6032C12.2191 59.3777 26.7533 44.5583 44.8265 44.1835Z" fill="#C8A6FF"/>
</svg>