<svg xmlns="http://www.w3.org/2000/svg" width="111" height="112" viewBox="0 0 111 112" fill="none">
  <path d="M0.565918 111.033L8.30259 82.7687C3.52851 74.4955 1.01994 65.117 1.02452 55.5001C1.03828 25.4339 25.5049 0.967285 55.5665 0.967285C70.1547 0.971871 83.8487 6.65399 94.149 16.9634C104.445 27.2729 110.113 40.976 110.108 55.5505C110.095 85.6213 85.6281 110.088 55.5665 110.088C46.4402 110.083 37.447 107.795 29.481 103.447L0.565918 111.033ZM30.8201 93.5735C38.5063 98.1366 45.844 100.87 55.5481 100.874C80.533 100.874 100.886 80.5399 100.9 55.5413C100.909 30.4923 80.6522 10.1853 55.5848 10.1761C30.5816 10.1761 10.2425 30.5107 10.2333 55.5046C10.2287 65.7086 13.2188 73.349 18.2406 81.3425L13.6591 98.0724L30.8201 93.5735ZM83.0415 68.5153C82.7022 67.9466 81.7941 67.6072 80.4275 66.9239C79.0654 66.2406 72.3652 62.9432 71.1132 62.4892C69.8658 62.0352 68.9578 61.8059 68.0451 63.1725C67.1371 64.5346 64.523 67.6072 63.7296 68.5153C62.9363 69.4233 62.1383 69.538 60.7762 68.8547C59.4142 68.1713 55.0207 66.7359 49.8156 62.0902C45.7661 58.4764 43.0282 54.0142 42.2348 52.6475C41.4414 51.2855 42.1523 50.5471 42.831 49.8684C43.4455 49.2584 44.1931 48.277 44.8764 47.4791C45.5689 46.6903 45.7936 46.1216 46.2522 45.209C46.7062 44.3009 46.4815 43.5029 46.1375 42.8196C45.7936 42.1409 43.0695 35.4315 41.9367 32.7028C40.8269 30.0475 39.7033 30.4052 38.8686 30.3639L36.2546 30.318C35.3466 30.318 33.8698 30.6574 32.6224 32.024C31.375 33.3907 27.8529 36.6835 27.8529 43.3929C27.8529 50.1023 32.7371 56.5824 33.4158 57.4904C34.0991 58.3984 43.0236 72.1658 56.6946 78.068C59.9462 79.4714 62.4868 80.3106 64.4634 80.9389C67.7287 81.9754 70.7005 81.8286 73.0485 81.4801C75.6672 81.0902 81.1108 78.1827 82.2481 75C83.3855 71.8127 83.3855 69.084 83.0415 68.5153Z" fill="url(#paint0_linear_53_1127)"/>
  <defs>
    <linearGradient id="paint0_linear_53_1127" x1="25.3753" y1="-24.5622" x2="99.5219" y2="-15.305" gradientUnits="userSpaceOnUse">
      <stop stop-color="#EC75FF"/>
      <stop offset="1" stop-color="#C8A6FF"/>
    </linearGradient>
  </defs>
</svg>